<?xml version="1.0" standalone="no"?>
<!DOCTYPE svg PUBLIC "-//W3C//DTD SVG 20010904//EN"
 "http://www.w3.org/TR/2001/REC-SVG-20010904/DTD/svg10.dtd">
<svg version="1.0" xmlns="http://www.w3.org/2000/svg"
 width="200.000000pt" height="200.000000pt" viewBox="0 0 200.000000 200.000000"
 preserveAspectRatio="xMidYMid meet">

<g transform="translate(0.000000,200.000000) scale(0.100000,-0.100000)"
fill="#000000" stroke="none">
<path d="M944 1871 c-2 -2 -4 -73 -4 -158 l0 -153 60 0 61 0 -3 156 -3 156
-53 2 c-30 0 -56 -1 -58 -3z"/>
<path d="M382 1617 l-42 -43 110 -109 110 -110 42 43 43 42 -110 110 -110 110
-43 -43z"/>
<path d="M1462 1557 c-56 -56 -102 -107 -102 -112 0 -6 18 -29 40 -50 l40 -39
110 109 110 109 -42 43 c-23 24 -45 43 -48 43 -3 0 -51 -46 -108 -103z"/>
<path d="M905 1426 c-83 -20 -146 -56 -211 -120 -175 -176 -175 -436 0 -612
176 -175 436 -175 612 0 175 176 175 436 0 612 -112 111 -258 155 -401 120z
m210 -137 c204 -76 261 -353 105 -509 -120 -120 -319 -120 -440 0 -161 162
-99 435 118 515 57 21 152 18 217 -6z"/>
<path d="M129 1055 c0 -3 -1 -29 -1 -57 l-1 -53 157 -3 156 -3 0 61 0 60 -155
0 c-85 0 -155 -2 -156 -5z"/>
<path d="M1560 1000 l0 -61 156 3 157 3 0 55 0 55 -157 3 -156 3 0 -61z"/>
<path d="M447 532 l-107 -108 43 -42 43 -42 109 110 109 110 -39 40 c-21 22
-42 40 -45 40 -3 0 -54 -49 -113 -108z"/>
<path d="M1395 600 l-39 -40 109 -110 109 -110 43 42 43 42 -107 108 c-59 59
-110 108 -113 108 -3 0 -24 -18 -45 -40z"/>
<path d="M940 287 c0 -85 2 -156 4 -158 2 -2 29 -2 60 -1 l56 4 0 154 0 154
-60 0 -60 0 0 -153z"/>
</g>
</svg>
